<svg xmlns="http://www.w3.org/2000/svg" viewBox="0 0 226 104" role="img" aria-label="DIEYNEM Co. Limited">
  <g transform="translate(0.000000,104.000000) scale(0.100000,-0.100000)" fill="#000000">
    <path d="M1120 813 c-1 -104 -1 -107 -15 -69 -18 50 -69 104 -123 127 -51 22
-167 25 -223 5 -54 -19 -108 -65 -125 -105 l-15 -35 -18 31 c-12 19 -43 42
-82 62 l-62 31 -179 0 -178 0 0 -295 0 -295 124 0 c146 0 268 15 305 37 14 9
40 32 57 51 l32 35 25 -39 c63 -95 102 -116 221 -117 123 -1 189 35 236 129
l19 39 1 -147 0 -148 350 0 350 0 0 96 c0 88 2 96 18 89 61 -25 108 -24 161 4
17 10 21 9 21 -4 0 -12 13 -15 60 -15 l60 0 0 205 0 205 -65 0 -65 0 0 -65 0
-66 -31 17 c-48 24 -124 11 -160 -29 -37 -40 -48 -117 -26 -182 l16 -45 -30 0
c-22 0 -29 5 -29 20 0 16 -7 20 -35 20 l-35 0 0 64 0 65 33 3 c30 3 32 6 35
46 l3 42 -35 0 -36 0 0 56 c0 53 -1 55 -22 48 -13 -3 -42 -18 -65 -31 -32 -18
-43 -31 -43 -49 0 -17 -6 -24 -20 -24 -17 0 -20 -7 -20 -45 0 -38 3 -45 19
-45 18 0 20 -9 23 -85 l3 -85 -82 0 -83 0 0 300 0 300 -135 0 -135 0 0 -107z
m-186 -104 c14 -17 26 -37 26 -45 0 -10 6 -13 18 -10 9 3 37 10 62 16 25 6 53
13 63 16 15 5 17 -5 17 -111 0 -108 -1 -117 -17 -110 -24 10 -125 45 -129 45
-2 0 -8 -19 -14 -42 -15 -54 -43 -77 -97 -78 -33 0 -46 5 -66 29 -50 60 -43
259 11 301 39 32 95 27 126 -11z m-528 3 c30 -19 49 -78 48 -147 -3 -117 -21
-143 -108 -152 l-56 -6 0 157 0 156 53 0 c28 0 57 -4 63 -8z m1582 -221 c8 -4
16 -27 19 -50 4 -31 1 -46 -12 -61 -34 -38 -69 -21 -81 38 -11 55 33 99 74 73z"/>
  </g>
</svg>
